<svg id="visual" viewBox="0 0 900 550" width="900" height="550" xmlns="http://www.w3.org/2000/svg" xmlns:xlink="http://www.w3.org/1999/xlink" version="1.1"><rect x="0" y="0" width="900" height="550" fill="#d9f99d"></rect><path d="M0 432L21.5 421.3C43 410.7 86 389.3 128.8 378.7C171.7 368 214.3 368 257.2 389.8C300 411.7 343 455.3 385.8 456.8C428.7 458.3 471.3 417.7 514.2 407.8C557 398 600 419 642.8 440C685.7 461 728.3 482 771.2 481.2C814 480.3 857 457.7 878.5 446.3L900 435L900 551L878.5 551C857 551 814 551 771.2 551C728.3 551 685.7 551 642.8 551C600 551 557 551 514.2 551C471.3 551 428.7 551 385.8 551C343 551 300 551 257.2 551C214.3 551 171.7 551 128.8 551C86 551 43 551 21.5 551L0 551Z" fill="#fff" stroke-linecap="round" stroke-linejoin="miter"></path></svg>