<svg id="visual" viewBox="0 0 900 300" width="900" height="300" xmlns="http://www.w3.org/2000/svg" xmlns:xlink="http://www.w3.org/1999/xlink" version="1.1"><rect x="0" y="0" width="900" height="300" fill="#BBF7D0"></rect><path d="M0 151L21.5 153.3C43 155.7 86 160.3 128.8 176.2C171.7 192 214.3 219 257.2 236.3C300 253.7 343 261.3 385.8 261.5C428.7 261.7 471.3 254.3 514.2 241.7C557 229 600 211 642.8 213.8C685.7 216.7 728.3 240.3 771.2 244.5C814 248.7 857 233.3 878.5 225.7L900 218L900 301L878.5 301C857 301 814 301 771.2 301C728.3 301 685.7 301 642.8 301C600 301 557 301 514.2 301C471.3 301 428.7 301 385.8 301C343 301 300 301 257.2 301C214.3 301 171.7 301 128.8 301C86 301 43 301 21.5 301L0 301Z" fill="#5095e9" stroke-linecap="round" stroke-linejoin="miter"></path></svg>